<?xml version="1.0" encoding="utf-8"?>
<!-- Generator: Adobe Illustrator 16.0.4, SVG Export Plug-In . SVG Version: 6.00 Build 0)  -->
<!DOCTYPE svg PUBLIC "-//W3C//DTD SVG 1.1//EN" "http://www.w3.org/Graphics/SVG/1.1/DTD/svg11.dtd">
<svg version="1.1" id="Layer_1" xmlns="http://www.w3.org/2000/svg" xmlns:xlink="http://www.w3.org/1999/xlink" x="0px" y="0px"
	 width="1052px" height="1052px" viewBox="0 0 1052 1052" enable-background="new 0 0 1052 1052" xml:space="preserve">
<rect x="-0.5" y="-0.5" fill="#151C2F" width="1052" height="1053"/>
<g transform="translate(0.000000,1052.000000) scale(0.100000,-0.100000)">
	<path fill="#646297" d="M2350,5740c-377.998-30-695-165.996-930.996-400C1175.996,5099.004,1060,4805,1060,4432.002
		c0-557.998,229.004-947.998,740-1257.002c130-77.998,307.002-162.998,612.998-295C2830,2700.996,2985,2615.996,3084.004,2510
		c121.992-130.996,155.996-340,78.994-500c-15-30.996-53.994-82.998-88.994-117.998C2955.996,1772.998,2770,1710,2539.004,1710
		c-390,0-681.006,160-915,505.996c-32.002,46.006-61.006,84.004-65,84.004c-9.004,0-770-439.004-786.006-454.004
		c-10-8.994-2.002-30,37.002-93.994C1114.004,1240,1589.004,940,2230.996,854.004c168.008-23.008,483.008-22.002,644.004,0
		c404.004,56.992,707.002,190.996,942.002,418.994c250,241.006,372.998,552.998,372.998,944.004c0,250-40.996,445-134.004,637.998
		c-63.994,132.002-127.998,220.996-237.998,332.998c-210.996,214.004-483.994,376.006-1028.994,610
		c-412.002,177.002-550,252.998-641.006,350c-87.002,92.998-123.994,202.002-115.996,337.998
		c7.002,108.008,37.002,181.006,102.998,252.002c95,102.998,205,146.006,375,145c192.998,0,317.998-50,445-177.998
		c45-44.004,102.998-115,130-157.998c30.996-49.004,54.004-76.006,62.002-72.998C3172.998,4485,3900,4955,3900,4962.002
		c0,3.994-37.002,62.002-82.002,130C3722.002,5235.996,3549.004,5415.996,3430,5495c-220,145.996-455,220.996-765,244.004
		C2512.998,5750.996,2492.998,5750.996,2350,5740z"/>
</g>
<g>
	<path fill="#646297" d="M463.384,819.857c0-86.84,68.804-148.964,156.98-148.964c88.176,0,156.312,62.124,156.312,148.964
		c0,86.172-68.136,147.628-156.312,147.628C532.188,967.485,463.384,906.029,463.384,819.857z M684.492,819.857
		c0-42.752-24.049-71.476-64.128-71.476c-40.08,0-64.796,28.724-64.796,71.476c0,42.084,24.716,71.477,64.796,71.477
		C660.443,891.334,684.492,861.941,684.492,819.857z"/>
	<path fill="#646297" d="M829.392,477.132h89.379v491.155h-89.379V477.132z"/>
</g>
</svg>
